<svg width="17" height="20" viewBox="0 0 17 20" fill="none" xmlns="http://www.w3.org/2000/svg">
<path fill-rule="evenodd" clip-rule="evenodd" d="M16.0368 17.2883L14.8916 4.39264C14.8671 4.10634 14.6258 3.88957 14.3436 3.88957H11.9877C11.955 1.73824 10.1963 0 8.03681 0C5.8773 0 4.1186 1.73824 4.08588 3.88957H1.73006C1.44376 3.88957 1.20654 4.10634 1.182 4.39264L0.0368048 17.2883C0.0368048 17.2965 0.0357828 17.3047 0.0347605 17.3129L0.0347598 17.3129L0.0347591 17.3129C0.0337369 17.3211 0.0327148 17.3292 0.0327148 17.3374C0.0327148 18.8057 1.37832 20 3.03476 20H13.0388C14.6953 20 16.0409 18.8057 16.0409 17.3374C16.0409 17.3211 16.0409 17.3047 16.0368 17.2883ZM8.0368 1.10429C9.58691 1.10429 10.8507 2.34765 10.8834 3.88957H5.19018C5.2229 2.34765 6.4867 1.10429 8.0368 1.10429ZM3.03476 18.8957H13.0388C14.0736 18.8957 14.9202 18.2086 14.9366 17.362L13.8364 4.99795H11.9877V6.67485C11.9877 6.9816 11.7423 7.22699 11.4356 7.22699C11.1288 7.22699 10.8834 6.9816 10.8834 6.67485V4.99795H5.18609V6.67485C5.18609 6.9816 4.94069 7.22699 4.63394 7.22699C4.32719 7.22699 4.08179 6.9816 4.08179 6.67485V4.99795H2.23312L1.13701 17.362C1.15337 18.2086 1.9959 18.8957 3.03476 18.8957Z" fill="#33333A"/>
</svg>
