<svg width="120" height="22" viewBox="0 0 120 22" fill="none" xmlns="http://www.w3.org/2000/svg">
<path fill-rule="evenodd" clip-rule="evenodd" d="M21.129 4.89661C18.7455 4.89661 16.0932 5.79953 14.7312 8.35201C13.638 6.19889 11.3262 4.89661 8.36918 4.89661C6.29032 4.89661 4.03226 5.60852 2.65233 7.57064V5.22652H0V21.6701H2.68817V12.3978C2.68817 9.2723 5.03584 7.36227 7.88531 7.36227C10.9857 7.36227 12.7778 9.20284 12.7778 12.3283V21.6701H15.448V12.3978C15.448 9.2723 17.7957 7.36227 20.6452 7.36227C23.7634 7.36227 25.5556 9.20284 25.5556 12.3283V21.6701H28.2258V11.4775C28.2258 7.50118 25.3405 4.89661 21.129 4.89661ZM50.3584 5.22652V21.6701H47.6882V19.2218C46.3441 20.9061 44.2832 22 41.4875 22C36.7204 22 33.0108 18.3883 33.0108 13.4396C33.0108 8.50829 36.7204 4.89661 41.4875 4.89661C44.2832 4.89661 46.3441 6.00789 47.6882 7.67482V5.22652H50.3584ZM41.81 7.32755C38.172 7.32755 35.7348 10.0537 35.7348 13.4396C35.7348 16.8429 38.2079 19.5691 41.81 19.5691C45.3405 19.5691 47.8495 16.9298 47.8495 13.4396C47.8495 9.96685 45.3405 7.32755 41.81 7.32755ZM68.1541 5.22652H60.8244V0H58.1541V5.22652H54.4444V7.57064H58.1541V15.9227C58.1541 20.0552 60.3226 22 63.9785 22C66.0574 22 67.7419 21.3054 69.0143 20.3678L67.7599 18.4057C66.7742 19.1002 65.5018 19.5691 64.1936 19.5691C62.2222 19.5691 60.8244 18.4404 60.8244 15.8706V7.57064H68.1541V5.22652ZM84.3907 5.22652H77.0609V0H74.3907V5.22652H70.681V7.57064H74.3907V15.9227C74.3907 20.0552 76.5591 22 80.215 22C82.2939 22 83.9785 21.3054 85.2509 20.3678L83.9964 18.4057C83.0107 19.1002 81.7383 19.5691 80.4301 19.5691C78.4588 19.5691 77.0609 18.4404 77.0609 15.8706V7.57064H84.3907V5.22652ZM96.2366 4.89661C100.842 4.89661 104.176 8.38674 104.211 13.3875C104.211 13.7174 104.194 14.0647 104.158 14.3599H90.5556C90.9319 17.9021 93.4946 19.7253 96.5591 19.7253C98.6559 19.7253 100.484 18.944 101.935 17.659L103.369 19.4301C101.254 21.3923 98.8889 22 96.3979 22C91.3799 22 87.8136 18.5446 87.8136 13.457C87.8136 8.42147 91.3979 4.89661 96.2366 4.89661ZM96.1828 7.206C93.0466 7.206 91.0215 9.28966 90.5914 12.2589H101.487C101.147 9.18548 99.0681 7.206 96.1828 7.206ZM116.882 4.89661C114.803 4.89661 113.011 5.85162 111.846 7.53591V5.22652H109.194V21.6701H111.864V12.4672C111.864 9.35912 113.763 7.34491 116.416 7.34491C117.401 7.34491 118.53 7.57064 119.355 8.00474L120 5.45225C119.104 5.05288 118.1 4.89661 116.882 4.89661Z" fill="#030303"/>
</svg>
