<svg width="24" height="24" viewBox="0 0 24 24" fill="none" xmlns="http://www.w3.org/2000/svg">
<path fill-rule="evenodd" clip-rule="evenodd" d="M16.48 9.9L16.49 10.17C16.49 12.96 14.36 16.18 10.48 16.18C9.29 16.18 8.18 15.83 7.24 15.23C7.41 15.25 7.58 15.26 7.75 15.26C8.74 15.26 9.65 14.93 10.37 14.36C9.44 14.34 8.67 13.73 8.4 12.89C8.53 12.92 8.66 12.93 8.79 12.93C8.99 12.93 9.17 12.9 9.35 12.86C8.38 12.66 7.66 11.81 7.66 10.79V10.76C7.94 10.92 8.27 11.01 8.61 11.02C8.05 10.64 7.67 10 7.67 9.27C7.67 8.88 7.78 8.52 7.96 8.2C9 9.48 10.56 10.32 12.31 10.41C12.28 10.26 12.26 10.09 12.26 9.93C12.26 8.76 13.2 7.82 14.37 7.82C14.98 7.82 15.52 8.07 15.91 8.48C16.39 8.39 16.84 8.21 17.25 7.97C17.09 8.47 16.76 8.88 16.32 9.14C16.75 9.09 17.16 8.98 17.53 8.81C17.25 9.23 16.89 9.6 16.48 9.9ZM12 0C5.37 0 0 5.37 0 12C0 18.63 5.37 24 12 24C18.63 24 24 18.63 24 12C24 5.37 18.63 0 12 0Z" fill="#B2B2B2"/>
</svg>
